<?xml version='1.0' encoding='utf-8'?>
<!DOCTYPE svg PUBLIC '-//W3C//DTD SVG 1.1//EN' 'http://www.w3.org/Graphics/SVG/1.1/DTD/svg11.dtd'>
<svg version="1.1" xmlns="http://www.w3.org/2000/svg" viewBox="0 0 512 512" xmlns:xlink="http://www.w3.org/1999/xlink" enable-background="new 0 0 512 512">
  <g>
    <path d="m501,119.2c0-6-2.6-11.3-6.6-15.1l-73.3-85.9c-3.9-4.5-9.5-7.2-15.5-7.2h-299.4c-6,0-11.6,2.6-15.5,7.2l-74.8,87.8c-3.2,3.8-4.9,8.5-4.9,13.2v0c0,0 0,0 0,0.1v361.2c0,11.3 9.1,20.4 20.4,20.4h449c11.3,0 20.4-9.1 20.4-20.4 5.68434e-14,0 0.2-360.4 0.2-361.3zm-41,37c0,18.3-14.9,33.2-33.2,33.2h-5.1c-18.3,0-33.2-14.9-33.2-33.2v-16.6h71.5v16.6zm-112.3,0c0,18.3-14.9,33.2-33.2,33.2h-5.1c-18.3,0-33.2-14.9-33.2-33.2v-16.6h71.4v16.6zm-112.1,0c0,18.3-14.9,33.2-33.2,33.2h-5.1c-18.3,0-33.2-14.9-33.2-33.2v-16.6h71.4v16.6zm-112.2,0c0,18.3-14.9,33.2-33.2,33.2h-5c-18.3,0-33.2-14.9-33.2-33.2v-16.6h71.4v16.6zm-7.5-104.3h280.5l40,46.9h-360.5l40-46.9zm110.9,408.2v-105.7h58.7v105.7h-58.7zm99.5,0v-126.1c0-11.3-9.1-20.4-20.4-20.4h-99.5c-11.3,0-20.4,9.1-20.4,20.4v126.1h-134v-237.8c10,5 21.2,7.9 33.2,7.9h5.1c21.1,0 40.1-8.9 53.6-23 13.5,14.2 32.5,23 53.6,23h5.1c21.1,0 40.1-8.9 53.6-23 13.5,14.2 32.5,23 53.6,23h5.1c21.1,0 40.1-8.9 53.6-23 13.5,14.2 32.5,23 53.6,23h5.1c11.9,0 23.2-2.9 33.2-7.9v237.8h-134.1z"/>
  </g>
</svg>
